<svg width="237" height="74" viewBox="0 0 237 74" fill="none" xmlns="http://www.w3.org/2000/svg">
<path fill-rule="evenodd" clip-rule="evenodd" d="M102.005 22.2531C99.6852 22.2531 96.9317 22.745 93.9233 26.2329V16.4717C93.9233 14.0059 91.9219 12 89.4616 12C87.0014 12 85 14.0059 85 16.4717V48.3042C85 50.77 87.0014 52.7759 89.4616 52.7759C91.9219 52.7759 93.9233 50.77 93.9233 48.3042V35.9494C93.9233 32.3975 95.6059 30.4364 98.6717 30.4364C101.674 30.4364 103.254 32.34 103.254 35.9494V48.3042C103.254 50.77 105.256 52.7759 107.716 52.7759C110.176 52.7759 112.178 50.77 112.178 48.3042V33.3558C112.171 26.4054 108.373 22.2531 102.005 22.2531ZM127.628 22.4704C123.995 22.4704 121.114 22.9431 118.291 24.0036C116.825 24.5529 115.843 25.9711 115.843 27.5298C115.843 29.6124 117.494 31.2414 119.604 31.2414C120.037 31.2414 120.4 31.1775 120.897 31.0114C122.612 30.4748 124.422 30.2193 126.443 30.2193C131.236 30.2193 132.256 32.8704 132.268 35.1126C130.605 34.5696 128.508 34.0714 125.582 34.0714C117.959 34.0714 113.587 37.5657 113.587 43.6664V43.775C113.587 49.2881 117.717 52.9932 123.861 52.9932C127.322 52.9932 130.095 51.9392 132.307 49.78C132.683 51.3578 134.193 52.7824 136.513 52.7824C138.954 52.7824 140.866 50.8915 140.866 48.4768V35.2979C140.866 31.152 139.783 27.9579 137.635 25.8114C135.417 23.5947 132.052 22.4704 127.628 22.4704ZM126.334 46.5859C123.804 46.5859 122.236 45.3849 122.236 43.4492V43.3407C122.236 41.0345 124.161 39.7185 127.52 39.7185C129.241 39.7185 130.955 40.0571 132.377 40.6704V41.8905C132.377 44.6502 129.891 46.5859 126.334 46.5859ZM152.823 26.3099C155.131 23.5822 157.973 22.2534 161.492 22.2534C168.203 22.2534 174.991 27.5109 174.991 37.5659V37.6745C174.991 42.306 173.57 46.2284 170.887 49.0264C168.433 51.5881 165.099 52.9935 161.492 52.9935C158.018 52.9935 155.258 51.8053 152.868 49.2755V56.9414C152.868 59.4072 150.867 61.4131 148.406 61.4131C145.946 61.4131 143.945 59.4072 143.945 56.9414V26.9424C143.945 24.4765 145.946 22.4706 148.406 22.4706C150.656 22.4706 152.518 24.1443 152.823 26.3099ZM166.075 37.5659C166.075 33.2284 163.2 29.9512 159.388 29.9512C155.551 29.9512 152.76 33.1517 152.76 37.5659V37.6745C152.76 42.0888 155.545 45.2893 159.388 45.2893C163.264 45.2893 166.075 42.0888 166.075 37.6745V37.5659ZM194.597 22.2534C191.079 22.2534 188.236 23.5822 185.929 26.3099C185.623 24.1443 183.762 22.4706 181.512 22.4706C179.051 22.4706 177.05 24.4765 177.05 26.9424V56.9414C177.05 59.4072 179.051 61.4131 181.512 61.4131C183.972 61.4131 185.973 59.4072 185.973 56.9414V49.2755C188.363 51.8053 191.123 52.9935 194.597 52.9935C198.205 52.9935 201.538 51.5881 203.992 49.0264C206.675 46.2284 208.097 42.306 208.097 37.6745V37.5659C208.097 27.5109 201.309 22.2534 194.597 22.2534ZM192.494 29.9512C196.305 29.9512 199.18 33.2284 199.18 37.5659V37.6745C199.18 42.0888 196.369 45.2893 192.494 45.2893C188.65 45.2893 185.865 42.0888 185.865 37.6745V37.5659C185.865 33.1517 188.657 29.9512 192.494 29.9512ZM228.002 25.8434C228.831 23.6331 230.309 22.4705 232.279 22.4705C234.656 22.4705 236.524 24.2911 236.517 26.6036C236.517 27.2744 236.301 28.2454 236.109 28.6926L226.045 52.9166C223.515 59.0557 220.876 61.2341 215.962 61.2341C214.228 61.2341 212.896 61.0041 211.366 60.4547C210.315 60.0714 208.543 59.0749 208.543 56.7112C208.543 54.3859 210.372 52.9997 212.138 52.9997C212.839 52.9997 213.259 53.1211 213.597 53.2361C214.292 53.4533 214.674 53.5427 215.203 53.5427C216.542 53.5427 217.103 53.3255 217.778 52.0287L217.982 51.5432L208.192 28.8076C207.969 28.2454 207.733 27.3766 207.733 26.7697C207.733 24.3166 209.626 22.4641 212.138 22.4641C214.209 22.4641 215.611 23.5501 216.414 25.7859L222.31 41.6734L228.002 25.8434Z" fill="white"/>
<path d="M63.9739 18.7786V44.9078C63.9739 55.2784 55.5339 63.6863 45.1237 63.6863H43.217L33.4805 73.3795C33.0992 73.7594 32.5717 74 31.987 74C31.4467 74 30.9574 73.8037 30.5824 73.4745L30.4172 73.3099L30.4108 73.3036L20.7569 63.6863H18.8439C8.44003 63.6863 0 55.2784 0 44.9078V18.7786C0 8.40794 8.44003 0 18.8503 0H45.1237C55.5339 0 63.9739 8.40794 63.9739 18.7786Z" fill="#EC3030"/>
<path d="M14.8951 36.197C13.0393 36.197 11.9816 38.3036 13.0583 39.8247C17.245 45.7501 24.1679 49.6133 31.9902 49.6133C39.8124 49.6133 46.729 45.7437 50.9156 39.8247C51.9924 38.3036 50.9347 36.197 49.0788 36.197H14.8951Z" fill="white"/>
<path d="M25.7641 27.2298H14.5659V21.6036C14.5659 18.4977 17.0741 15.9774 20.165 15.9774C23.2559 15.9774 25.7641 18.4977 25.7641 21.6036V27.2298Z" fill="white"/>
<path d="M49.415 27.2298H38.2168V21.6036C38.2168 18.4977 40.725 15.9774 43.8159 15.9774C46.9068 15.9774 49.415 18.4977 49.415 21.6036V27.2298Z" fill="white"/>
</svg>
